<svg width="36" height="36" viewBox="0 0 36 36" fill="none" xmlns="http://www.w3.org/2000/svg">
<path d="M26.6646 13.7982C27.3741 14.4367 27.3644 15.5523 26.6439 16.1784V16.1784C26.0383 16.7047 25.1353 16.6968 24.539 16.1601L19.6667 11.775V28.3333C19.6667 29.2538 18.9205 30 18 30V30C17.0795 30 16.3333 29.2538 16.3333 28.3333V11.775L11.6065 16.0291C10.9271 16.6406 9.89833 16.6496 9.20833 16.05V16.05V16.05C8.56633 15.4921 8.55768 14.4981 9.18987 13.9291L16.6621 7.20414C17.4227 6.51959 18.5773 6.51959 19.3379 7.20414L26.6646 13.7982Z" fill="white"/>
<circle cx="18" cy="18" r="16.5" stroke="white" stroke-width="3"/>
</svg>
