<svg width="25" height="25" viewBox="0 0 25 25" fill="none" xmlns="http://www.w3.org/2000/svg">
<path d="M12.5001 7.29163C11.1187 7.29163 9.79399 7.84036 8.81723 8.81711C7.84048 9.79386 7.29175 11.1186 7.29175 12.5C7.29175 13.8813 7.84048 15.2061 8.81723 16.1828C9.79399 17.1596 11.1187 17.7083 12.5001 17.7083C13.8814 17.7083 15.2062 17.1596 16.1829 16.1828C17.1597 15.2061 17.7084 13.8813 17.7084 12.5C17.7084 11.1186 17.1597 9.79386 16.1829 8.81711C15.2062 7.84036 13.8814 7.29163 12.5001 7.29163Z" fill="white"/>
<path fill-rule="evenodd" clip-rule="evenodd" d="M12.5001 1.04163C12.7763 1.04163 13.0413 1.15137 13.2367 1.34672C13.432 1.54207 13.5417 1.80703 13.5417 2.08329V3.12496C13.5417 3.40123 13.432 3.66618 13.2367 3.86153C13.0413 4.05688 12.7763 4.16663 12.5001 4.16663C12.2238 4.16663 11.9589 4.05688 11.7635 3.86153C11.5682 3.66618 11.4584 3.40123 11.4584 3.12496V2.08329C11.4584 1.80703 11.5682 1.54207 11.7635 1.34672C11.9589 1.15137 12.2238 1.04163 12.5001 1.04163ZM3.43029 3.43017C3.62563 3.23489 3.89054 3.12518 4.16675 3.12518C4.44296 3.12518 4.70786 3.23489 4.90321 3.43017L6.46571 4.99267C6.65545 5.18913 6.76045 5.45226 6.75808 5.72538C6.7557 5.9985 6.64615 6.25976 6.45302 6.4529C6.25988 6.64603 5.99862 6.75558 5.7255 6.75795C5.45238 6.76033 5.18925 6.65533 4.99279 6.46558L3.43029 4.90308C3.23501 4.70774 3.1253 4.44284 3.1253 4.16663C3.1253 3.89041 3.23501 3.62551 3.43029 3.43017ZM21.5699 3.43017C21.7652 3.62551 21.8749 3.89041 21.8749 4.16663C21.8749 4.44284 21.7652 4.70774 21.5699 4.90308L20.0074 6.46558C19.9113 6.56507 19.7963 6.64443 19.6693 6.69902C19.5422 6.75362 19.4055 6.78235 19.2672 6.78355C19.1289 6.78476 18.9917 6.7584 18.8637 6.70602C18.7357 6.65365 18.6193 6.5763 18.5215 6.4785C18.4237 6.38069 18.3464 6.26439 18.294 6.13637C18.2416 6.00835 18.2153 5.87119 18.2165 5.73287C18.2177 5.59456 18.2464 5.45788 18.301 5.33079C18.3556 5.2037 18.435 5.08876 18.5345 4.99267L20.097 3.43017C20.2923 3.23489 20.5572 3.12518 20.8334 3.12518C21.1096 3.12518 21.3745 3.23489 21.5699 3.43017ZM1.04175 12.5C1.04175 12.2237 1.15149 11.9587 1.34685 11.7634C1.5422 11.568 1.80715 11.4583 2.08341 11.4583H3.12508C3.40135 11.4583 3.6663 11.568 3.86165 11.7634C4.057 11.9587 4.16675 12.2237 4.16675 12.5C4.16675 12.7762 4.057 13.0412 3.86165 13.2365C3.6663 13.4319 3.40135 13.5416 3.12508 13.5416H2.08341C1.80715 13.5416 1.5422 13.4319 1.34685 13.2365C1.15149 13.0412 1.04175 12.7762 1.04175 12.5ZM20.8334 12.5C20.8334 12.2237 20.9432 11.9587 21.1385 11.7634C21.3339 11.568 21.5988 11.4583 21.8751 11.4583H22.9167C23.193 11.4583 23.458 11.568 23.6533 11.7634C23.8487 11.9587 23.9584 12.2237 23.9584 12.5C23.9584 12.7762 23.8487 13.0412 23.6533 13.2365C23.458 13.4319 23.193 13.5416 22.9167 13.5416H21.8751C21.5988 13.5416 21.3339 13.4319 21.1385 13.2365C20.9432 13.0412 20.8334 12.7762 20.8334 12.5ZM6.46571 18.5343C6.66099 18.7297 6.77069 18.9946 6.77069 19.2708C6.77069 19.547 6.66099 19.8119 6.46571 20.0073L4.90321 21.5698C4.70675 21.7595 4.44362 21.8645 4.1705 21.8621C3.89737 21.8597 3.63611 21.7502 3.44298 21.5571C3.24985 21.3639 3.14029 21.1027 3.13792 20.8295C3.13555 20.5564 3.24054 20.2933 3.43029 20.0968L4.99279 18.5343C5.18813 18.3391 5.45304 18.2293 5.72925 18.2293C6.00546 18.2293 6.27036 18.3391 6.46571 18.5343ZM18.5345 18.5343C18.7298 18.3391 18.9947 18.2293 19.2709 18.2293C19.5471 18.2293 19.812 18.3391 20.0074 18.5343L21.5699 20.0968C21.7596 20.2933 21.8646 20.5564 21.8622 20.8295C21.8599 21.1027 21.7503 21.3639 21.5572 21.5571C21.364 21.7502 21.1028 21.8597 20.8297 21.8621C20.5565 21.8645 20.2934 21.7595 20.097 21.5698L18.5345 20.0073C18.3392 19.8119 18.2295 19.547 18.2295 19.2708C18.2295 18.9946 18.3392 18.7297 18.5345 18.5343ZM12.5001 20.8333C12.7763 20.8333 13.0413 20.943 13.2367 21.1384C13.432 21.3337 13.5417 21.5987 13.5417 21.875V22.9166C13.5417 23.1929 13.432 23.4578 13.2367 23.6532C13.0413 23.8485 12.7763 23.9583 12.5001 23.9583C12.2238 23.9583 11.9589 23.8485 11.7635 23.6532C11.5682 23.4578 11.4584 23.1929 11.4584 22.9166V21.875C11.4584 21.5987 11.5682 21.3337 11.7635 21.1384C11.9589 20.943 12.2238 20.8333 12.5001 20.8333Z" fill="white"/>
</svg>
